<svg width="14" height="14" viewBox="0 0 14 14" fill="none" xmlns="http://www.w3.org/2000/svg">
<path d="M2.93594 13.9219V5.16211H0.211328V13.9219H2.93594ZM1.55898 3.99023C2.43789 3.99023 3.14102 3.25781 3.14102 2.37891C3.14102 1.5293 2.43789 0.826172 1.55898 0.826172C0.709375 0.826172 0.0062499 1.5293 0.0062499 2.37891C0.0062499 3.25781 0.709375 3.99023 1.55898 3.99023ZM13.102 13.9219H13.1312V9.11719C13.1312 6.77344 12.6039 4.95703 9.85 4.95703C8.53164 4.95703 7.65273 5.68945 7.27187 6.36328H7.24258V5.16211H4.63516V13.9219H7.35977V9.58594C7.35977 8.44336 7.56484 7.35938 8.97109 7.35938C10.3773 7.35938 10.4066 8.64844 10.4066 9.67383V13.9219H13.102Z" fill="white"/>
</svg>
