<svg width="16" height="15" viewBox="0 0 16 15" fill="none" xmlns="http://www.w3.org/2000/svg">
<path d="M14.493 1.43359L11.6492 0.777344C11.3484 0.695312 11.0203 0.859375 10.8836 1.16016L9.57109 4.22266C9.46172 4.49609 9.54375 4.79688 9.7625 4.98828L11.4305 6.35547C10.4461 8.43359 8.72344 10.1836 6.59062 11.1953L5.22344 9.52734C5.03203 9.30859 4.73125 9.22656 4.45781 9.33594L1.39531 10.6484C1.09453 10.7852 0.957812 11.1133 1.0125 11.4141L1.66875 14.2578C1.75078 14.5586 1.99687 14.75 2.325 14.75C9.325 14.75 15.0125 9.08984 15.0125 2.0625C15.0125 1.76172 14.7937 1.51562 14.493 1.43359Z" fill="#33CCFF"/>
</svg>
