<svg width="16" height="13" viewBox="0 0 16 13" fill="none" xmlns="http://www.w3.org/2000/svg">
<path d="M13.516 3.25C14.102 2.81055 14.6293 2.2832 15.0395 1.66797C14.5121 1.90234 13.8969 2.07812 13.2816 2.13672C13.9262 1.75586 14.3949 1.16992 14.6293 0.4375C14.0434 0.789062 13.3695 1.05273 12.6957 1.19922C12.1098 0.583984 11.3187 0.232422 10.4398 0.232422C8.74062 0.232422 7.36367 1.60938 7.36367 3.30859C7.36367 3.54297 7.39297 3.77734 7.45156 4.01172C4.90273 3.86523 2.61758 2.63477 1.09414 0.789062C0.830469 1.22852 0.683984 1.75586 0.683984 2.3418C0.683984 3.39648 1.21133 4.33398 2.06094 4.89062C1.56289 4.86133 1.06484 4.74414 0.654687 4.50977V4.53906C0.654687 6.0332 1.70937 7.26367 3.11562 7.55664C2.88125 7.61523 2.58828 7.67383 2.32461 7.67383C2.11953 7.67383 1.94375 7.64453 1.73867 7.61523C2.11953 8.8457 3.26211 9.72461 4.60977 9.75391C3.55508 10.5742 2.23672 11.0723 0.801172 11.0723C0.5375 11.0723 0.303125 11.043 0.0687499 11.0137C1.41641 11.8926 3.02773 12.3906 4.78555 12.3906C10.4398 12.3906 13.516 7.73242 13.516 3.66016C13.516 3.51367 13.516 3.39648 13.516 3.25Z" fill="white"/>
</svg>
