<svg width="19" height="18" viewBox="0 0 19 18" fill="none" xmlns="http://www.w3.org/2000/svg">
<path d="M13.4844 11.5H12.6944L12.4144 11.23C13.3944 10.09 13.9844 8.61 13.9844 7C13.9844 3.41 11.0744 0.5 7.48438 0.5C3.89438 0.5 0.984375 3.41 0.984375 7C0.984375 10.59 3.89438 13.5 7.48438 13.5C9.09437 13.5 10.5744 12.91 11.7144 11.93L11.9844 12.21V13L16.9844 17.99L18.4744 16.5L13.4844 11.5ZM7.48438 11.5C4.99438 11.5 2.98438 9.49 2.98438 7C2.98438 4.51 4.99438 2.5 7.48438 2.5C9.97437 2.5 11.9844 4.51 11.9844 7C11.9844 9.49 9.97437 11.5 7.48438 11.5Z" fill="#0A0A0A"/>
</svg>
